<mxfile host="65bd71144e">
    <diagram id="6I0OCvxSQrVGMHxT2VVA" name="Page-1">
        <mxGraphModel dx="126" dy="525" grid="1" gridSize="10" guides="1" tooltips="1" connect="1" arrows="1" fold="1" page="1" pageScale="1" pageWidth="850" pageHeight="1100" background="#E6E6E6" math="0" shadow="1">
            <root>
                <mxCell id="0"/>
                <mxCell id="1" parent="0"/>
                <mxCell id="WtVcBaEnB1_Sni-o9t-m-2" value="&lt;font face=&quot;Helvetica&quot; style=&quot;font-size: 20px;&quot;&gt;调度协程&lt;/font&gt;" style="ellipse;whiteSpace=wrap;html=1;fillColor=#d5e8d4;strokeColor=#82b366;shadow=1;" parent="1" vertex="1">
                    <mxGeometry x="310" y="520" width="140" height="70" as="geometry"/>
                </mxCell>
                <mxCell id="WtVcBaEnB1_Sni-o9t-m-3" value="&lt;font style=&quot;font-size: 20px;&quot;&gt;调度协程&lt;/font&gt;" style="ellipse;whiteSpace=wrap;html=1;fillColor=#d5e8d4;strokeColor=#82b366;shadow=1;" parent="1" vertex="1">
                    <mxGeometry x="1220" y="520" width="140" height="70" as="geometry"/>
                </mxCell>
                <mxCell id="WtVcBaEnB1_Sni-o9t-m-4" value="&lt;font style=&quot;font-size: 20px;&quot;&gt;调度协程&lt;/font&gt;" style="ellipse;whiteSpace=wrap;html=1;fillColor=#d5e8d4;strokeColor=#82b366;shadow=1;" parent="1" vertex="1">
                    <mxGeometry x="920" y="520" width="140" height="70" as="geometry"/>
                </mxCell>
                <mxCell id="WtVcBaEnB1_Sni-o9t-m-7" value="&lt;font face=&quot;Helvetica&quot; style=&quot;font-size: 20px;&quot;&gt;子协程1&lt;/font&gt;" style="ellipse;whiteSpace=wrap;html=1;fillColor=#fff2cc;strokeColor=#d6b656;shadow=1;fontSize=20;" parent="1" vertex="1">
                    <mxGeometry x="425" y="820" width="140" height="70" as="geometry"/>
                </mxCell>
                <mxCell id="WtVcBaEnB1_Sni-o9t-m-8" value="&lt;font face=&quot;Helvetica&quot; style=&quot;font-size: 20px;&quot;&gt;子协程2&lt;/font&gt;" style="ellipse;whiteSpace=wrap;html=1;fillColor=#fff2cc;strokeColor=#d6b656;shadow=1;fontSize=20;" parent="1" vertex="1">
                    <mxGeometry x="750" y="820" width="140" height="70" as="geometry"/>
                </mxCell>
                <mxCell id="WtVcBaEnB1_Sni-o9t-m-9" value="&lt;font face=&quot;Helvetica&quot; style=&quot;font-size: 20px;&quot;&gt;子协程3&lt;/font&gt;" style="ellipse;whiteSpace=wrap;html=1;fillColor=#fff2cc;strokeColor=#d6b656;shadow=1;fontSize=20;" parent="1" vertex="1">
                    <mxGeometry x="1085" y="820" width="140" height="70" as="geometry"/>
                </mxCell>
                <mxCell id="WtVcBaEnB1_Sni-o9t-m-10" value="&lt;font style=&quot;font-size: 20px;&quot;&gt;调度协程&lt;/font&gt;" style="ellipse;whiteSpace=wrap;html=1;fillColor=#d5e8d4;strokeColor=#82b366;shadow=1;" parent="1" vertex="1">
                    <mxGeometry x="580" y="520" width="140" height="70" as="geometry"/>
                </mxCell>
                <mxCell id="40" value="" style="edgeStyle=none;html=1;entryX=0;entryY=0.5;entryDx=0;entryDy=0;" parent="1" source="13" target="38" edge="1">
                    <mxGeometry relative="1" as="geometry">
                        <mxPoint x="125" y="410" as="targetPoint"/>
                    </mxGeometry>
                </mxCell>
                <mxCell id="13" value="Main( )开始" style="shape=umlActor;verticalLabelPosition=bottom;verticalAlign=top;html=1;outlineConnect=0;labelBackgroundColor=#2f933f;fontSize=24;" parent="1" vertex="1">
                    <mxGeometry x="170" y="255" width="30" height="60" as="geometry"/>
                </mxCell>
                <mxCell id="19" value="&lt;span style=&quot;background-color: rgb(47, 132, 147);&quot;&gt;Main( )结束&lt;/span&gt;" style="shape=umlActor;verticalLabelPosition=bottom;verticalAlign=top;html=1;outlineConnect=0;labelBackgroundColor=#2f933f;fontSize=24;" parent="1" vertex="1">
                    <mxGeometry x="1410" y="255" width="40" height="60" as="geometry"/>
                </mxCell>
                <mxCell id="20" value="" style="endArrow=classic;html=1;labelBackgroundColor=#151d1e;fontSize=24;exitX=0.744;exitY=0.994;exitDx=0;exitDy=0;entryX=0.414;entryY=0;entryDx=0;entryDy=0;entryPerimeter=0;exitPerimeter=0;" parent="1" source="WtVcBaEnB1_Sni-o9t-m-2" target="WtVcBaEnB1_Sni-o9t-m-7" edge="1">
                    <mxGeometry width="50" height="50" relative="1" as="geometry">
                        <mxPoint x="605" y="580" as="sourcePoint"/>
                        <mxPoint x="655" y="530" as="targetPoint"/>
                    </mxGeometry>
                </mxCell>
                <mxCell id="21" value="" style="endArrow=classic;html=1;labelBackgroundColor=#151d1e;fontSize=24;exitX=0.636;exitY=-0.029;exitDx=0;exitDy=0;exitPerimeter=0;entryX=0;entryY=1;entryDx=0;entryDy=0;" parent="1" source="WtVcBaEnB1_Sni-o9t-m-7" target="WtVcBaEnB1_Sni-o9t-m-10" edge="1">
                    <mxGeometry width="50" height="50" relative="1" as="geometry">
                        <mxPoint x="665" y="660" as="sourcePoint"/>
                        <mxPoint x="725" y="590" as="targetPoint"/>
                    </mxGeometry>
                </mxCell>
                <mxCell id="31" value="" style="endArrow=classic;html=1;labelBackgroundColor=#151d1e;fontSize=24;exitX=1;exitY=1;exitDx=0;exitDy=0;entryX=0;entryY=0;entryDx=0;entryDy=0;" parent="1" source="WtVcBaEnB1_Sni-o9t-m-10" target="WtVcBaEnB1_Sni-o9t-m-8" edge="1">
                    <mxGeometry width="50" height="50" relative="1" as="geometry">
                        <mxPoint x="775.0031151624373" y="589.9953045358602" as="sourcePoint"/>
                        <mxPoint x="780" y="730" as="targetPoint"/>
                    </mxGeometry>
                </mxCell>
                <mxCell id="33" value="" style="endArrow=classic;html=1;labelBackgroundColor=#151d1e;fontSize=24;exitX=1;exitY=0;exitDx=0;exitDy=0;entryX=0;entryY=1;entryDx=0;entryDy=0;" parent="1" source="WtVcBaEnB1_Sni-o9t-m-8" target="WtVcBaEnB1_Sni-o9t-m-4" edge="1">
                    <mxGeometry width="50" height="50" relative="1" as="geometry">
                        <mxPoint x="854.04" y="649.9999999999998" as="sourcePoint"/>
                        <mxPoint x="915" y="592.03" as="targetPoint"/>
                    </mxGeometry>
                </mxCell>
                <mxCell id="35" value="" style="endArrow=classic;html=1;labelBackgroundColor=#151d1e;fontSize=24;exitX=1;exitY=1;exitDx=0;exitDy=0;entryX=0;entryY=0;entryDx=0;entryDy=0;" parent="1" source="WtVcBaEnB1_Sni-o9t-m-4" target="WtVcBaEnB1_Sni-o9t-m-9" edge="1">
                    <mxGeometry width="50" height="50" relative="1" as="geometry">
                        <mxPoint x="985" y="580" as="sourcePoint"/>
                        <mxPoint x="1015" y="650" as="targetPoint"/>
                    </mxGeometry>
                </mxCell>
                <mxCell id="36" value="" style="endArrow=classic;html=1;labelBackgroundColor=#151d1e;fontSize=24;exitX=0.615;exitY=-0.035;exitDx=0;exitDy=0;entryX=0;entryY=1;entryDx=0;entryDy=0;exitPerimeter=0;" parent="1" source="WtVcBaEnB1_Sni-o9t-m-9" target="WtVcBaEnB1_Sni-o9t-m-3" edge="1">
                    <mxGeometry width="50" height="50" relative="1" as="geometry">
                        <mxPoint x="864.04" y="659.9999999999998" as="sourcePoint"/>
                        <mxPoint x="925" y="602.03" as="targetPoint"/>
                    </mxGeometry>
                </mxCell>
                <mxCell id="38" value="&lt;font style=&quot;font-size: 20px;&quot;&gt;创建调度器&lt;/font&gt;" style="ellipse;whiteSpace=wrap;html=1;fillColor=#60a917;strokeColor=#2D7600;shadow=1;fontColor=#ffffff;" parent="1" vertex="1">
                    <mxGeometry x="255" y="250" width="170" height="70" as="geometry"/>
                </mxCell>
                <mxCell id="55" value="" style="edgeStyle=none;html=1;" parent="1" source="41" target="42" edge="1">
                    <mxGeometry relative="1" as="geometry"/>
                </mxCell>
                <mxCell id="41" value="&lt;font style=&quot;font-size: 20px;&quot;&gt;开始调度&lt;br&gt;（Do Nothing）&lt;br&gt;&lt;/font&gt;" style="ellipse;whiteSpace=wrap;html=1;fillColor=#60a917;strokeColor=#2D7600;shadow=1;fontColor=#ffffff;" parent="1" vertex="1">
                    <mxGeometry x="475" y="250" width="170" height="70" as="geometry"/>
                </mxCell>
                <mxCell id="42" value="&lt;font style=&quot;font-size: 20px;&quot;&gt;添加调度任务&lt;/font&gt;" style="ellipse;whiteSpace=wrap;html=1;fillColor=#60a917;strokeColor=#2D7600;shadow=1;fontColor=#ffffff;" parent="1" vertex="1">
                    <mxGeometry x="720" y="250" width="170" height="70" as="geometry"/>
                </mxCell>
                <mxCell id="56" value="" style="edgeStyle=none;html=1;" parent="1" source="43" target="19" edge="1">
                    <mxGeometry relative="1" as="geometry"/>
                </mxCell>
                <mxCell id="43" value="&lt;font style=&quot;font-size: 20px;&quot;&gt;停止调度&lt;br&gt;（等待调度线程退出）&lt;/font&gt;" style="ellipse;whiteSpace=wrap;html=1;fillColor=#60a917;strokeColor=#2D7600;shadow=1;fontColor=#ffffff;" parent="1" vertex="1">
                    <mxGeometry x="1005" y="240" width="275" height="90" as="geometry"/>
                </mxCell>
                <mxCell id="50" value="" style="endArrow=classic;html=1;entryX=0;entryY=0.5;entryDx=0;entryDy=0;exitX=1;exitY=0.5;exitDx=0;exitDy=0;" parent="1" source="38" target="41" edge="1">
                    <mxGeometry width="50" height="50" relative="1" as="geometry">
                        <mxPoint x="400" y="290" as="sourcePoint"/>
                        <mxPoint x="450" y="240" as="targetPoint"/>
                    </mxGeometry>
                </mxCell>
                <mxCell id="53" value="" style="endArrow=classic;html=1;entryX=0;entryY=0.5;entryDx=0;entryDy=0;exitX=1;exitY=0.5;exitDx=0;exitDy=0;exitPerimeter=0;" parent="1" source="42" target="43" edge="1">
                    <mxGeometry width="50" height="50" relative="1" as="geometry">
                        <mxPoint x="914.9999999999977" y="284.41" as="sourcePoint"/>
                        <mxPoint x="1005.0000000000027" y="284.41" as="targetPoint"/>
                    </mxGeometry>
                </mxCell>
                <mxCell id="54" value="" style="endArrow=classic;html=1;entryX=0;entryY=0.5;entryDx=0;entryDy=0;exitX=1;exitY=0.5;exitDx=0;exitDy=0;" parent="1" source="41" target="42" edge="1">
                    <mxGeometry width="50" height="50" relative="1" as="geometry">
                        <mxPoint x="670" y="284" as="sourcePoint"/>
                        <mxPoint x="740.0000000000027" y="284.41" as="targetPoint"/>
                    </mxGeometry>
                </mxCell>
                <mxCell id="57" value="" style="endArrow=classic;html=1;entryX=1;entryY=0;entryDx=0;entryDy=0;exitX=0;exitY=1;exitDx=0;exitDy=0;" parent="1" source="43" target="WtVcBaEnB1_Sni-o9t-m-2" edge="1">
                    <mxGeometry width="50" height="50" relative="1" as="geometry">
                        <mxPoint x="510" y="400" as="sourcePoint"/>
                        <mxPoint x="560" y="350" as="targetPoint"/>
                    </mxGeometry>
                </mxCell>
                <mxCell id="58" value="&lt;font style=&quot;&quot;&gt;&lt;span style=&quot;font-size: 16px;&quot;&gt;切到调度协程&lt;/span&gt;&lt;br&gt;&lt;span style=&quot;font-size: 16px;&quot;&gt;swapcontext(main_ctx, scheduler_ctx)&lt;/span&gt;&lt;br&gt;&lt;/font&gt;" style="text;html=1;align=center;verticalAlign=middle;resizable=0;points=[];autosize=1;strokeColor=none;fillColor=none;rotation=-20;" parent="1" vertex="1">
                    <mxGeometry x="550" y="380" width="290" height="50" as="geometry"/>
                </mxCell>
                <mxCell id="60" value="" style="endArrow=classic;html=1;exitX=0.5;exitY=0;exitDx=0;exitDy=0;entryX=1;entryY=1;entryDx=0;entryDy=0;startArrow=none;" parent="1" source="68" target="43" edge="1">
                    <mxGeometry width="50" height="50" relative="1" as="geometry">
                        <mxPoint x="1240" y="520" as="sourcePoint"/>
                        <mxPoint x="1210" y="445" as="targetPoint"/>
                    </mxGeometry>
                </mxCell>
                <mxCell id="65" value="&lt;font style=&quot;font-size: 16px;&quot;&gt;全部任务执行结束&lt;/font&gt;" style="text;html=1;align=center;verticalAlign=middle;resizable=0;points=[];autosize=1;strokeColor=none;fillColor=none;rotation=-15;" parent="1" vertex="1">
                    <mxGeometry x="1230" y="390" width="150" height="30" as="geometry"/>
                </mxCell>
                <mxCell id="67" value="&lt;font style=&quot;font-size: 16px;&quot;&gt;返回main( )主协程&lt;/font&gt;" style="text;html=1;align=center;verticalAlign=middle;resizable=0;points=[];autosize=1;strokeColor=none;fillColor=none;rotation=-15;" parent="1" vertex="1">
                    <mxGeometry x="1080" y="400" width="150" height="30" as="geometry"/>
                </mxCell>
                <mxCell id="69" value="" style="endArrow=none;html=1;exitX=0.5;exitY=0;exitDx=0;exitDy=0;entryX=1;entryY=1;entryDx=0;entryDy=0;" parent="1" source="WtVcBaEnB1_Sni-o9t-m-3" target="68" edge="1">
                    <mxGeometry width="50" height="50" relative="1" as="geometry">
                        <mxPoint x="1290" y="520" as="sourcePoint"/>
                        <mxPoint x="1239.5499227223572" y="316.8777118431101" as="targetPoint"/>
                    </mxGeometry>
                </mxCell>
                <mxCell id="68" value="swapcontext(scheduler_ctx, main_ctx)" style="text;html=1;align=center;verticalAlign=middle;resizable=0;points=[];autosize=1;strokeColor=none;fillColor=none;rotation=-15;" parent="1" vertex="1">
                    <mxGeometry x="1110" y="450" width="230" height="30" as="geometry"/>
                </mxCell>
                <mxCell id="70" value="swapcontext(scheduler_ctx, child1_ctx)" style="text;whiteSpace=wrap;html=1;rotation=75;" parent="1" vertex="1">
                    <mxGeometry x="325" y="700" width="225" height="30" as="geometry"/>
                </mxCell>
                <mxCell id="71" value="swapcontext(child1_ctx, scheduler_ctx)" style="text;whiteSpace=wrap;html=1;rotation=-70;" parent="1" vertex="1">
                    <mxGeometry x="460" y="680" width="240" height="40" as="geometry"/>
                </mxCell>
                <mxCell id="72" value="swapcontext(scheduler_ctx, child2_ctx)" style="text;whiteSpace=wrap;html=1;rotation=75;" parent="1" vertex="1">
                    <mxGeometry x="600" y="700" width="240" height="30" as="geometry"/>
                </mxCell>
                <mxCell id="73" value="swapcontext(child2_ctx, scheduler_ctx)" style="text;whiteSpace=wrap;html=1;rotation=-75;" parent="1" vertex="1">
                    <mxGeometry x="810" y="680" width="240" height="40" as="geometry"/>
                </mxCell>
                <mxCell id="74" value="swapcontext(scheduler_ctx, child3_ctx)" style="text;whiteSpace=wrap;html=1;rotation=75;" parent="1" vertex="1">
                    <mxGeometry x="940" y="710" width="240" height="40" as="geometry"/>
                </mxCell>
                <mxCell id="75" value="swapcontext(child3_ctx, scheduler_ctx)" style="text;whiteSpace=wrap;html=1;rotation=-75;" parent="1" vertex="1">
                    <mxGeometry x="1105" y="680" width="240" height="40" as="geometry"/>
                </mxCell>
            </root>
        </mxGraphModel>
    </diagram>
</mxfile>